# xmcd
# 
# Track frame offsets:
#     150
#     30237
#     53314
#     75334
#     100053
#     124744
#     148090
#     176339
#     201134
#     216074
# 
# Disc length: 3181
# 
# Revision: 5
# Processed by: cddbd v1.5.2PL0 Copyright (c) Steve Scherf et al.
# Submitted via: fre:ac v1.0.17
# 
DISCID=740c6b0a
DTITLE=Divers - CD3 The Jazzcollection Sweet And Dangerous Jazz Blues
DYEAR=1999
DGENRE=Jazz
TTITLE0=Lou Donaldson - Blues Walk
TTITLE1=Cannoball Adderley Sextet - Work Song
TTITLE2=Kenny Burell - Five Spot After Dark
TTITLE3=Chittlins Con Carne
TTITLE4=Jimmy Smith - Jumpin' The Blues
TTITLE5=Horace Parlan - C Jam Blues
TTITLE6=Horace Slilver and Bill Henderson - Senor Blues
TTITLE7=Herbie Hancock - Cantaloupe Island
TTITLE8=Supersax - Cool Blues
TTITLE9=The Three Sounds - Nothing But The Blues
EXTD=YEAR: 1999
EXTT0=
EXTT1=
EXTT2=
EXTT3=
EXTT4=
EXTT5=
EXTT6=
EXTT7=
EXTT8=
EXTT9=
PLAYORDER=
